<svg id="Logo" xmlns="http://www.w3.org/2000/svg" viewBox="0 0 600 118.67"><defs><style>.cls-1{fill:#e22d00;}</style></defs><title>hermanmiller-logo-lockup-red-digital</title><path class="cls-1" d="M60.35,1A59.34,59.34,0,1,0,120,60.33C120,27.64,93.05,1,60.35,1m32.7,90.21s-12.72-4.54-32.7-4.54-32.69,4.54-32.69,4.54V29.46h.91S34,84,60.35,84,92.14,29.46,92.14,29.46h.91Z" transform="translate(-1.32 -1)"/><path class="cls-1" d="M245.32,64.27H230.18c0-6.66,3-10.29,7.57-10.29,4.84,0,7.57,3.93,7.57,10.29m119.57,4.84-.3,9.08A8.62,8.62,0,0,1,357,82.43c-3.63,0-5.75-2.12-5.75-6.05,0-2.42.61-3.94,2.12-5.15,1.51-1.51,4.54-2.42,9.69-2.42a3.85,3.85,0,0,0,1.81.3m199.8-4.84H549.86c.3-6.66,2.72-10.29,7.57-10.29,4.54,0,7.26,3.93,7.26,10.29m-350.25,23V34.9H206V56.1H186.29V34.9h-8.48V87.58h8.48V63.06H206V87.58ZM254.1,70V68.51c0-8.48-1.82-13.32-4.85-16.35a15.34,15.34,0,0,0-10.9-4.24,15.51,15.51,0,0,0-12.1,5.15c-3,3.33-4.85,8.17-4.85,14.83,0,12.41,7,20.28,18.17,20.28A21.59,21.59,0,0,0,253.79,83l-3.33-4.85a15.56,15.56,0,0,1-10,3.64A10.35,10.35,0,0,1,232,77.89c-1.21-1.81-1.52-4.54-1.52-7.26V70Zm27.54-21.49a9.11,9.11,0,0,0-3.33-.61c-4.23,0-7.26,2.42-10,6.06v-.61a8.68,8.68,0,0,0-1.51-5.15l-7.87,2.12c.91,2.43,1.21,5.15,1.21,9.69V87.58h8.48V61.85a5.54,5.54,0,0,1,2.42-4.24,6.79,6.79,0,0,1,5.15-1.82,7.25,7.25,0,0,1,2.42.61Zm53.89,38.75V59.12c0-4.24-.91-7-3-8.78-1.51-1.51-4.54-2.42-7.26-2.42a17,17,0,0,0-12.11,5.75,10.09,10.09,0,0,0-9.39-5.75c-3.63,0-7.87,2.12-10.59,4.85a18.36,18.36,0,0,0-1.52-4.85l-7.56,1.82c1.21,2.42,1.51,3.93,1.51,9.38V87h8.17V58.52c3.33-2.73,6.06-3.94,8.48-3.94,3.33,0,4.54,1.82,4.54,6.06V87h8.17V59.12c3.33-3.33,6.36-4.84,8.78-4.84,3,0,4.24,1.51,4.24,5.45V86.67h7.57Zm40.87-3.64c-2.73-1.81-3.64-3.33-3.64-7.87V74.56l.31-11.5V60.64a26.7,26.7,0,0,0-.61-6.66c-1.51-4.24-5.75-6.36-11.81-6.36a26.36,26.36,0,0,0-10.59,2.12,59.15,59.15,0,0,0-6.36,3l3.64,5.75a18.4,18.4,0,0,1,4.84-2.73A18.23,18.23,0,0,1,359.44,54c2.43,0,3.64.6,4.54,1.81s1.22,2.43,1.22,5.15v2.72h-2.73c-13,0-20,4.55-20,13.63,0,3,.91,6.35,3,8.17,2.42,2.12,5.15,3,10,3A15.49,15.49,0,0,0,364,86.07a18.24,18.24,0,0,0,2.43-2.43,9.1,9.1,0,0,0,5.45,5.15Zm37.23,3.64V58.82c0-7.27-4.24-10.6-10.59-10.6-4.24,0-7.57,1.52-12.11,5.15a10.21,10.21,0,0,0-1.52-5.15l-7.56,2.12c1.21,2.73,1.21,4.54,1.21,9.09V87.88h8.17V60c2.72-2.72,6.36-4.54,9.08-4.54,3.33,0,4.54,1.51,4.54,7V87.88h8.78Zm64.18,0L473.27,34.6H461.46L450.87,73.35,440.27,34.9H428.16L423,87.58h7.87l3.63-44.2,12.41,44.2h6.36L465.7,44.29l3.63,43.29h8.48Zm16.95,0V47.92l-8.47,1.21V87h8.47Zm23.61,0-1.51-4.85H516c-1.51,0-2.72-.91-2.72-3.63V42.47c0-4.84,0-8.47-.61-10.89l-8.47,1.81a52,52,0,0,1,.9,11.2V79.41c0,5.75,3.33,9.08,8.18,9.08a22,22,0,0,0,5.14-1.21M496.28,37.63a5.51,5.51,0,0,0-5.76-5.45,5.69,5.69,0,0,0-5.75,5.45,5.63,5.63,0,0,0,5.45,5.45c3.63,0,6.06-2.42,6.06-5.45m41.47,49.65-1.51-4.85a2.72,2.72,0,0,1-2.73-.6c-.6-.91-.91-2.42-.91-6.06V42.47c0-4.84,0-8.47-.6-10.89l-8.48,1.81a51.21,51.21,0,0,1,.91,11.2v33.3c0,4.24.91,6.36,1.82,7.87,1.21,1.82,3.63,2.73,6.35,2.73a33.09,33.09,0,0,0,5.15-1.21M573.47,70V68.51c0-8.48-1.82-13.32-4.84-16.35a15.58,15.58,0,0,0-11.2-4.24,16.46,16.46,0,0,0-12.11,5.15c-3,3.33-4.85,8.17-4.85,14.83,0,12.41,7,20.28,18.17,20.28A22.17,22.17,0,0,0,572.86,83l-3.33-4.85a15.56,15.56,0,0,1-10,3.64,10.36,10.36,0,0,1-8.48-3.94,13.6,13.6,0,0,1-1.82-7.26V70Zm27.85-21.49a9.2,9.2,0,0,0-3.33-.61c-4.24,0-7.57,2.42-10,6.06v-.61a8.68,8.68,0,0,0-1.51-5.15l-7.57,2.12c.91,2.43,1.21,5.15,1.21,9.69V87.58h8.48V61.85A5.54,5.54,0,0,1,591,57.61a6.79,6.79,0,0,1,5.14-1.82,7.24,7.24,0,0,1,2.43.61Z" transform="translate(-1.32 -1)"/></svg>